<svg xmlns="http://www.w3.org/2000/svg" width="933.333" height="933.333" preserveAspectRatio="xMidYMid meet" version="1.0" viewBox="0 0 700 700"><metadata>Created by potrace 1.11, written by Peter Selinger 2001-2013</metadata><g fill="#000" stroke="none"><path d="M2115 6982 c-80 -8 -194 -36 -230 -58 -47 -28 -145 -116 -145 -130 0 -20 -59 -70 -107 -91 -26 -12 -96 -40 -155 -63 -113 -44 -246 -121 -368 -212 -75 -56 -224 -200 -418 -403 -57 -59 -131 -128 -165 -153 -34 -24 -64 -46 -66 -48 -2 -2 -5 -14 -6 -26 -1 -15 -15 -29 -42 -43 -115 -58 -255 -239 -294 -380 -19 -68 -17 -370 3 -440 l14 -50 -33 -43 c-18 -24 -33 -52 -33 -63 0 -27 41 -25 77 4 15 12 53 39 84 59 31 20 133 114 225 208 93 95 214 211 268 258 55 48 110 98 123 111 112 110 439 354 603 451 179 106 510 280 655 344 33 15 68 32 79 37 29 17 282 108 401 146 108 34 321 86 400 98 42 6 97 15 130 22 35 7 249 33 270 32 11 0 72 3 135 6 217 12 572 7 695 -10 22 -3 69 -7 105 -10 223 -16 444 -69 628 -151 62 -27 233 -138 307 -198 156 -128 255 -270 294 -422 33 -126 19 -339 -27 -421 -12 -21 -62 -38 -107 -36 -97 4 -204 18 -265 33 -19 5 -50 12 -69 15 -19 3 -42 10 -52 16 -11 5 -19 8 -19 5 0 -7 -140 45 -295 109 -449 186 -658 235 -973 229 -124 -2 -280 -12 -292 -19 -3 -1 -36 -6 -75 -10 -38 -4 -72 -8 -75 -10 -3 -1 -27 -6 -55 -10 -72 -9 -227 -45 -240 -54 -5 -5 -35 -14 -65 -21 -146 -34 -417 -147 -615 -257 -55 -31 -240 -139 -412 -239 -171 -101 -313 -184 -316 -184 -10 0 -235 -156 -312 -215 -109 -85 -224 -200 -325 -325 -94 -116 -120 -147 -135 -164 -57 -61 -314 -390 -310 -395 3 -2 20 8 38 22 19 14 38 23 41 19 4 -4 -39 -50 -95 -104 -57 -53 -100 -100 -96 -104 4 -4 20 1 35 13 140 103 149 77 15 -42 -90 -80 -127 -125 -103 -125 5 0 53 30 107 67 96 65 97 66 69 29 -16 -21 -62 -73 -102 -115 -125 -131 -154 -163 -154 -172 0 -16 27 -9 52 14 42 39 172 152 192 167 18 14 18 14 8 -5 -6 -11 -30 -41 -54 -67 -69 -74 -224 -236 -311 -325 -44 -46 -78 -86 -74 -89 6 -6 80 49 122 91 11 11 54 50 95 85 41 36 104 95 140 133 69 72 89 84 66 39 -16 -32 -191 -234 -294 -341 -124 -129 -80 -110 82 33 44 39 108 100 143 135 68 68 94 76 47 14 -29 -39 -162 -192 -220 -253 -78 -82 -92 -107 -51 -94 44 13 92 58 260 242 21 23 42 42 48 42 10 0 -58 -97 -94 -135 -11 -11 -44 -50 -73 -86 -30 -37 -76 -89 -102 -115 -60 -62 -102 -117 -102 -134 0 -11 3 -11 12 -2 7 7 20 12 29 12 10 0 19 4 21 10 2 5 43 51 93 103 50 51 121 125 158 165 66 69 93 89 81 57 -4 -8 -10 -15 -14 -15 -5 0 -11 -8 -14 -17 -3 -10 -18 -31 -34 -48 -15 -16 -65 -75 -112 -130 -46 -55 -101 -119 -122 -142 -21 -24 -38 -44 -38 -47 0 -11 39 8 44 21 3 8 10 12 15 9 9 -6 147 131 217 215 22 26 51 54 66 63 26 16 27 16 21 -1 -11 -28 -60 -99 -150 -215 -46 -59 -83 -109 -83 -111 0 -2 13 -4 29 -3 18 1 26 5 21 10 -5 5 22 42 68 89 42 45 96 101 120 126 62 65 51 30 -24 -79 -36 -52 -77 -112 -91 -133 -22 -31 -28 -35 -42 -25 -13 10 -14 10 -4 -1 9 -11 8 -19 -5 -39 -16 -24 -16 -25 4 -14 18 10 94 90 194 205 17 20 36 37 42 37 13 0 -55 -122 -104 -187 -66 -87 -37 -81 52 11 47 48 86 82 88 76 5 -13 -37 -100 -82 -170 -33 -53 -38 -74 -13 -64 7 3 39 38 72 79 58 71 85 95 85 75 0 -6 -23 -55 -52 -110 -28 -55 -48 -103 -44 -107 3 -4 19 6 34 20 45 43 49 34 19 -35 l-17 -37 45 -72 c25 -40 45 -78 45 -84 0 -7 13 -31 28 -56 16 -24 53 -82 82 -129 75 -120 142 -203 290 -359 14 -14 65 -72 112 -129 185 -219 387 -376 478 -372 19 1 42 2 51 1 15 -1 121 -164 204 -316 21 -38 62 -107 92 -153 29 -45 53 -92 53 -103 0 -12 -9 -34 -20 -49 -25 -36 -50 -104 -55 -150 -11 -111 -22 -128 -158 -245 -32 -28 -63 -58 -68 -68 -9 -16 84 -17 1936 -17 1162 0 1964 4 1988 10 84 18 114 22 234 25 67 2 126 6 131 9 6 3 30 7 54 7 23 1 50 5 58 9 8 4 51 11 95 14 44 3 98 8 120 11 22 3 78 7 125 11 176 11 219 17 323 41 l67 15 0 59 c0 52 -2 57 -20 54 -13 -2 -20 2 -20 11 0 8 -10 14 -24 14 -14 0 -36 4 -50 10 -15 5 -26 6 -26 0 0 -5 -28 0 -62 11 -35 11 -77 24 -94 29 -17 6 -42 10 -56 10 -31 0 -305 87 -312 99 -3 5 -22 12 -41 15 -19 4 -35 11 -35 15 0 5 -8 11 -17 14 -10 4 -49 18 -88 32 -38 14 -139 48 -222 76 -84 28 -155 55 -159 60 -3 5 -9 7 -14 4 -13 -8 -17 2 -56 137 -31 105 -35 132 -29 183 12 106 16 140 20 160 10 49 19 233 19 375 1 189 -9 330 -28 430 -8 41 -17 97 -21 124 -3 27 -8 52 -10 55 -1 3 -6 24 -9 46 -12 75 -17 100 -26 135 -5 19 -11 52 -14 74 -4 21 -24 101 -46 179 -22 77 -40 147 -40 154 0 7 -4 21 -10 31 -8 14 -27 78 -30 104 -1 4 -10 31 -21 60 -11 29 -22 60 -24 68 -2 8 -12 42 -24 75 -11 33 -31 98 -44 145 -14 47 -37 117 -51 155 -40 105 -40 103 13 196 63 111 132 256 166 349 15 41 31 84 35 95 30 77 84 271 93 335 0 3 4 21 9 40 4 19 10 51 13 70 3 19 9 42 12 50 3 8 7 24 8 35 1 11 5 40 9 65 18 109 23 302 28 925 1 216 0 234 -21 290 -12 33 -26 64 -31 70 -4 5 -11 21 -15 35 -23 73 -148 248 -229 319 -65 57 -121 114 -119 122 2 4 -3 6 -10 3 -7 -2 -35 16 -62 40 -28 25 -70 53 -95 62 -25 9 -54 23 -65 30 -11 6 -47 19 -79 29 -32 9 -69 23 -81 31 -12 8 -25 11 -28 7 -4 -3 -15 1 -25 10 -16 15 -167 58 -252 72 -19 3 -51 10 -70 15 -19 5 -64 12 -100 15 -36 3 -74 8 -85 10 -51 11 -158 17 -350 22 -366 9 -606 1 -795 -27 -41 -6 -88 -13 -105 -15 -16 -2 -59 -8 -95 -14 -162 -26 -137 -32 -220 51 -188 186 -464 309 -655 290z" transform="translate(0.000000,700.000000) scale(0.100000,-0.100000)"/><path d="M35 4770 c-3 -6 1 -7 9 -4 18 7 21 14 7 14 -6 0 -13 -4 -16 -10z" transform="translate(0.000000,700.000000) scale(0.100000,-0.100000)"/><path d="M114 2731 c21 -23 26 -26 26 -11 0 5 -10 15 -22 21 -23 12 -23 12 -4 -10z" transform="translate(0.000000,700.000000) scale(0.100000,-0.100000)"/></g></svg>