<svg xmlns="http://www.w3.org/2000/svg" xmlns:svg="http://www.w3.org/2000/svg" xmlns:xlink="http://www.w3.org/1999/xlink" id="svg4025" width="399.258" height="351.122" preserveAspectRatio="xMidYMid meet" version="1.1" viewBox="0 0 399.258 351.122"><metadata id="metadata4029"/><defs id="defs3913"><path id="a1OAiPARZN" d="m 538.09,267.14 c 5.51,-0.48 10.36,3.59 10.84,9.09 0.61,7.05 1.59,18.26 2.21,25.31 0.48,5.5 -3.59,10.35 -9.09,10.83 -11.1,0.98 -34.45,3.02 -45.56,3.99 -5.5,0.48 -10.35,-3.59 -10.83,-9.09 -0.62,-7.05 -1.6,-18.26 -2.22,-25.31 -0.48,-5.5 3.59,-10.35 9.09,-10.84 11.11,-0.97 34.46,-3.01 45.56,-3.98 z"/><path id="f2uoliW3jZ" d="m 302.52,203.06 -25.18,169.47 c -20.51,15.12 16.04,33.24 109.66,54.36 93.62,21.11 136.79,3 129.5,-54.36 -7.46,-65.96 -13.75,-113.93 -18.88,-143.89 -5.13,-29.96 -18.83,-52.66 -41.12,-68.08 z"/><path id="aFpLoKPar" d="m 487.7,142 c 0,12.54 -8.85,22.71 -19.75,22.71 -10.9,0 -19.75,-10.17 -19.75,-22.71 0,-12.53 8.85,-22.7 19.75,-22.7 10.9,0 19.75,10.17 19.75,22.7 z"/><path id="a1mfE1L0eo" d="m 356.01,288.95 c 0,56.38 -45.05,102.16 -100.54,102.16 -55.5,0 -100.55,-45.78 -100.55,-102.16 0,-56.38 45.05,-102.16 100.55,-102.16 55.49,0 100.54,45.78 100.54,102.16 z"/><path id="b2x58MKrvz" d="m 467.09,131.59 c 4.56,25.84 -9.46,49.95 -31.29,53.8 -21.82,3.85 -43.24,-14.01 -47.8,-39.86 -4.55,-25.85 9.46,-49.95 31.29,-53.8 21.82,-3.85 43.24,14.01 47.8,39.86 z"/><path id="bdUTBRK1B" d="m 349.09,182.68 c 16.7,45.88 2.14,93.37 -32.5,105.97 -34.63,12.61 -76.31,-14.4 -93.01,-60.28 -16.7,-45.88 -2.13,-93.37 32.5,-105.97 34.64,-12.61 76.32,14.4 93.01,60.28 z"/><path id="a4ChNGbkG1" d="m 317.21,391.11 c 0,28.27 -22.53,51.22 -50.27,51.22 -27.75,0 -50.28,-22.95 -50.28,-51.22 0,-28.27 22.53,-51.21 50.28,-51.21 27.74,0 50.27,22.94 50.27,51.21 z"/><path id="aWuqAwzdY"/><path id="b3tNH30LXE"/><path id="b1DTazg5I7" d="m 287.83,315.1 c -8.39,-31.23 7.31,-45.19 47.11,-41.88 l 45.2,50.11"/><path id="baJwWHllF8" d="m 366.65,303.25 c -17.52,-22.41 -39.05,-32.47 -64.59,-30.19 -25.54,2.28 -33.43,18.39 -23.67,48.33 l 45.05,63.43 z"/><path id="aalcrMuED" d="m 332.53,317.23 c 6.08,6.9 6.18,16.38 0.21,21.15 -5.97,4.76 -15.76,3.03 -21.85,-3.87 -6.08,-6.91 -6.18,-16.38 -0.21,-21.15 5.97,-4.77 15.76,-3.03 21.85,3.87 z"/><path id="c6DS2hlAr" d="m 337.52,312.81 c 11.23,12.74 16.31,26.3 11.34,30.27 -4.97,3.97 -18.12,-3.15 -29.35,-15.89 -11.23,-12.74 -16.31,-26.3 -11.34,-30.27 4.97,-3.97 18.12,3.15 29.35,15.89 z"/><path id="e3X4q3ZrL" d="m 408.35,146.15 c 6.07,34.4 -12.46,66.46 -41.35,71.56 -28.88,5.09 -57.26,-18.7 -63.33,-53.1 -6.06,-34.4 12.47,-66.46 41.35,-71.55 28.89,-5.1 57.27,18.69 63.33,53.09 z"/><path id="eeU5MRVB1" d="m 439.63,225.56 c 5.1,-0.74 9.9,2.6 10.98,7.64 2.18,10.16 6.79,31.71 8.97,41.88 1.04,4.84 -2.23,9.55 -7.14,10.26 -2.75,0.4 -1.96,0.29 -4.72,0.69 -5.1,0.73 -9.9,-2.6 -10.98,-7.64 -2.18,-10.17 -6.8,-31.71 -8.98,-41.88 -1.04,-4.84 2.24,-9.55 7.14,-10.26 2.76,-0.4 1.97,-0.29 4.73,-0.69 z"/><path id="d3BxA4bXg" d="m 459.78,205.53 c -2.56,-0.53 -5.04,-0.93 -7.43,-1.21 -7.2,-0.86 -13.69,-0.65 -19.48,0.62 -2.56,0.57 -4.99,1.34 -7.28,2.33 -4.54,1.95 -8.53,4.72 -11.98,8.32 -2.21,2.3 -4.2,4.94 -5.96,7.93 -1.36,2.29 -2.59,4.79 -3.68,7.48 -1.08,2.67 -2.03,5.53 -2.85,8.58"/><path id="b2yLREKK91" d="m 406.5,237.53 c 0,3.7 -2.22,6.7 -4.95,6.7 -2.73,0 -4.95,-3 -4.95,-6.7 0,-3.7 2.22,-6.7 4.95,-6.7 2.73,0 4.95,3 4.95,6.7 z"/><path id="aK8O0OJqF" d="m 464.73,205.78 c 0,2.59 -2.22,4.7 -4.95,4.7 -2.74,0 -4.95,-2.11 -4.95,-4.7 0,-2.6 2.21,-4.71 4.95,-4.71 2.73,0 4.95,2.11 4.95,4.71 z"/><path id="atFAKceqH" d="m 503.2,262.03 c 1.99,-0.24 3.81,1.18 4.06,3.17 1.34,10.94 4.93,40.16 6.27,51.1 0.25,2 -1.17,3.82 -3.17,4.06 -0.72,0.09 0.72,-0.09 0,0 -2,0.25 -3.81,-1.17 -4.06,-3.17 -1.34,-10.94 -4.93,-40.16 -6.27,-51.1 -0.25,-2 1.17,-3.81 3.17,-4.06 0.72,-0.09 -0.72,0.09 0,0 z"/><path id="b87JZTWpn8" d="m 423.23,384.82 c -12.91,-17.53 -11.47,-31.08 4.32,-40.64"/><path id="bjrFqw0fZ" d="m 480.25,368.18 c -25.71,7.53 -47.62,3.81 -65.73,-11.14"/><path id="d2pdFrG1pF" d="m 495.63,219.79 c -3.45,-11.08 -4.42,-15.55 -8.11,-23.18 -1.18,-2.45 -3.41,-6.25 -6.69,-11.4 -1.92,-3.01 -4.07,-5.88 -6.42,-8.58 -0.86,-0.99 -3.01,-3.46 -6.46,-7.42"/></defs><g id="g4023" transform="translate(-154.92,-91.207947)"><g id="g4021"><g id="g3921"><use id="use3915" width="100%" height="100%" x="0" y="0" xlink:href="#a1OAiPARZN" style="opacity:1;fill:#ffcd9a;fill-opacity:1"/><g id="g3919"><use id="use3917" width="100%" height="100%" x="0" y="0" xlink:href="#a1OAiPARZN" style="opacity:1;fill-opacity:0;stroke:#000;stroke-width:6;stroke-opacity:1"/></g></g><g id="g3955"><g id="g3953"><use id="use3951" width="100%" height="100%" x="0" y="0" xlink:href="#aWuqAwzdY" style="opacity:1;fill-opacity:0;stroke:#2c81b8;stroke-width:2;stroke-opacity:1"/></g></g><g id="g3961"><g id="g3959"><use id="use3957" width="100%" height="100%" x="0" y="0" xlink:href="#b3tNH30LXE" style="opacity:1;fill-opacity:0;stroke:#2c81b8;stroke-width:2;stroke-opacity:1"/></g></g></g></g><g id="layer6" style="display:inline"><use id="use3923" width="100%" height="100%" x="0" y="0" transform="translate(-154.92,-91.207947)" xlink:href="#f2uoliW3jZ" style="opacity:1;fill:#ffcd9a;fill-opacity:1"/></g><g id="layer4" style="display:inline"><use id="use3925" width="100%" height="100%" x="0" y="0" transform="translate(-154.92,-91.207947)" xlink:href="#f2uoliW3jZ" style="opacity:1;fill-opacity:0;stroke:#000;stroke-width:6;stroke-opacity:1"/></g><g id="layer1" style="display:inline"><use id="use4015" width="100%" height="100%" x="0" y="0" transform="translate(-154.92,-91.207947)" xlink:href="#d2pdFrG1pF" style="opacity:1;fill-opacity:0;stroke:#956739;stroke-width:6;stroke-opacity:1"/><use id="use3999" width="100%" height="100%" x="0" y="0" transform="translate(-154.92,-91.207947)" xlink:href="#atFAKceqH" style="opacity:1;fill:#956739;fill-opacity:1"/></g><g id="layer2" style="display:inline"><use id="use3931" width="100%" height="100%" x="0" y="0" transform="translate(-154.92,-91.207947)" xlink:href="#aFpLoKPar" style="opacity:1;fill:#000;fill-opacity:1"/><use id="use3935" width="100%" height="100%" x="0" y="0" transform="translate(-154.92,-91.207947)" xlink:href="#a1mfE1L0eo" style="opacity:1;fill:#000;fill-opacity:1"/><use id="use3939" width="100%" height="100%" x="0" y="0" transform="translate(-154.92,-91.207947)" xlink:href="#b2x58MKrvz" style="opacity:1;fill:#000;fill-opacity:1"/><use id="use3943" width="100%" height="100%" x="0" y="0" transform="translate(-154.92,-91.207947)" xlink:href="#bdUTBRK1B" style="opacity:1;fill:#000;fill-opacity:1"/><use id="use3947" width="100%" height="100%" x="0" y="0" transform="translate(-154.92,-91.207947)" xlink:href="#a4ChNGbkG1" style="opacity:1;fill:#000;fill-opacity:1"/><use id="use3977" width="100%" height="100%" x="0" y="0" transform="translate(-154.92,-91.207947)" xlink:href="#e3X4q3ZrL" style="opacity:1;fill:#000;fill-opacity:1"/></g><g id="layer3" style="display:inline"><use id="use3965" width="100%" height="100%" x="0" y="0" transform="translate(-156.92,-91.207947)" xlink:href="#baJwWHllF8" style="opacity:1;fill:#ffcd9a;fill-opacity:1"/></g><g id="layer5" style="display:inline"><use id="use3973" width="100%" height="100%" x="0" y="0" transform="translate(-154.92,-91.207947)" xlink:href="#c6DS2hlAr" style="opacity:1;fill:#000;fill-opacity:1"/><use id="use3969" width="100%" height="100%" x="0" y="0" transform="translate(-154.92,-91.207947)" xlink:href="#aalcrMuED" style="opacity:1;fill:#000;fill-opacity:1"/><use id="use3981" width="100%" height="100%" x="0" y="0" transform="translate(-154.92,-91.207947)" xlink:href="#eeU5MRVB1" style="opacity:1;fill:#000;fill-opacity:1"/><use id="use3985" width="100%" height="100%" x="0" y="0" transform="translate(-154.92,-91.207947)" xlink:href="#d3BxA4bXg" style="opacity:1;fill-opacity:0;stroke:#000;stroke-width:10;stroke-opacity:1"/><use id="use4003" width="100%" height="100%" x="0" y="0" transform="translate(-154.92,-91.207947)" xlink:href="#b87JZTWpn8" style="display:inline;opacity:1;fill-opacity:0;stroke:#956739;stroke-width:8;stroke-opacity:1"/><use id="use4009" width="100%" height="100%" x="0" y="0" transform="translate(-154.92,-91.207947)" xlink:href="#bjrFqw0fZ" style="display:inline;opacity:1;fill-opacity:0;stroke:#956739;stroke-width:8;stroke-opacity:1"/><use id="use3991" width="100%" height="100%" x="0" y="0" transform="translate(-154.92,-91.207947)" xlink:href="#b2yLREKK91" style="opacity:1;fill:#000;fill-opacity:1"/><use id="use3995" width="100%" height="100%" x="0" y="0" transform="translate(-154.92,-91.207947)" xlink:href="#aK8O0OJqF" style="opacity:1;fill:#000;fill-opacity:1"/></g></svg>