<?xml version="1.0" standalone="no"?>
<!DOCTYPE svg PUBLIC "-//W3C//DTD SVG 20010904//EN"
 "http://www.w3.org/TR/2001/REC-SVG-20010904/DTD/svg10.dtd">
<svg version="1.0" xmlns="http://www.w3.org/2000/svg"
 width="798.000000pt" height="798.000000pt" viewBox="0 0 798.000000 798.000000"
 preserveAspectRatio="xMidYMid meet">
<metadata>
Created by potrace 1.11, written by Peter Selinger 2001-2013
</metadata>
<g transform="translate(0.000000,798.000000) scale(0.100000,-0.100000)"
fill="#000000" stroke="none">
<path d="M5240 7480 c-118 -31 -225 -90 -318 -174 -43 -39 -122 -140 -147
-188 l-19 -37 -75 74 c-42 41 -89 84 -106 97 -16 12 -31 26 -33 30 -2 5 -8 8
-12 8 -5 0 -29 14 -53 30 -25 17 -50 30 -56 30 -6 0 -11 5 -11 10 0 6 -5 10
-12 10 -6 0 -36 12 -66 26 -31 15 -60 27 -66 28 -6 2 -31 8 -56 15 -179 51
-380 47 -537 -10 -29 -10 -53 -15 -53 -11 0 4 -4 3 -8 -3 -4 -5 -41 -27 -82
-48 -82 -42 -208 -137 -236 -179 -10 -15 -20 -25 -22 -23 -3 2 -24 -22 -48
-53 -24 -31 -47 -61 -51 -67 -24 -30 -83 -140 -113 -210 -19 -44 -35 -82 -37
-84 -1 -2 -14 6 -30 16 -50 34 -235 112 -305 128 -13 2 -43 9 -68 15 -82 19
-94 21 -215 24 -104 2 -178 -5 -285 -27 -69 -15 -271 -101 -278 -119 -2 -4
-10 -8 -18 -8 -8 0 -14 -4 -14 -8 0 -5 -10 -14 -23 -19 -33 -17 -62 -41 -143
-123 -100 -100 -104 -105 -104 -118 0 -7 -3 -12 -7 -12 -5 0 -21 -21 -38 -48
-16 -26 -32 -49 -36 -52 -24 -18 -151 -323 -165 -395 -5 -26 -10 -51 -22 -105
-10 -44 -14 -68 -28 -180 -4 -30 -7 -107 -8 -170 l-2 -115 -107 -55 c-110 -56
-254 -143 -294 -176 -12 -11 -36 -30 -54 -44 -161 -124 -329 -308 -447 -491
-33 -52 -61 -98 -62 -104 -1 -5 -7 -17 -15 -25 -14 -16 -75 -144 -107 -225
-50 -125 -89 -263 -114 -395 -2 -14 -6 -34 -9 -45 -14 -64 -20 -172 -19 -340
1 -185 3 -215 25 -340 6 -33 12 -67 13 -75 5 -32 28 -126 35 -145 5 -11 19
-54 32 -95 13 -41 29 -78 34 -82 6 -4 7 -8 3 -8 -16 0 110 -258 160 -327 12
-17 22 -35 22 -40 1 -4 14 -24 30 -43 17 -19 30 -40 30 -47 0 -7 4 -13 8 -13
5 0 23 -19 40 -43 62 -87 209 -238 319 -328 45 -36 206 -149 213 -149 5 0 15
-6 22 -13 7 -7 67 -39 133 -72 110 -56 120 -63 116 -85 -13 -73 -1 -290 20
-365 34 -126 90 -253 149 -336 17 -24 38 -55 48 -69 28 -41 137 -145 188 -181
27 -19 51 -37 52 -41 2 -5 8 -8 13 -8 5 0 26 -10 47 -23 59 -37 151 -73 248
-98 69 -17 118 -23 219 -23 117 -1 156 2 234 18 39 9 125 38 137 47 6 5 14 6
17 2 4 -3 15 1 24 10 10 8 30 18 45 22 15 4 32 13 39 21 6 8 15 14 19 14 14 0
110 67 104 73 -3 3 3 8 14 11 56 18 208 203 272 332 39 79 42 82 68 74 199
-62 307 -95 352 -107 30 -8 61 -17 68 -19 7 -2 13 -3 15 -3 1 0 14 -4 30 -10
15 -6 38 -13 50 -16 35 -8 642 -164 642 -166 0 0 11 -2 25 -4 14 -2 45 -8 70
-14 25 -6 54 -13 65 -15 11 -3 29 -7 40 -9 28 -7 155 -35 185 -42 14 -2 48
-10 75 -16 28 -6 61 -12 75 -14 14 -2 34 -6 45 -8 48 -11 194 -37 235 -42 25
-2 59 -7 75 -10 17 -3 46 -7 65 -9 19 -3 35 -5 35 -6 0 -1 18 -3 40 -5 22 -2
65 -7 95 -11 187 -21 501 -31 650 -19 104 7 195 17 201 20 3 3 21 7 40 9 39 6
91 17 149 31 145 37 272 92 388 171 71 48 207 182 217 215 4 10 10 19 14 19
21 0 125 253 137 330 2 14 6 36 9 50 22 100 22 289 0 485 -2 17 -6 59 -10 95
-3 36 -8 76 -11 90 -2 14 -7 54 -10 90 -3 36 -8 76 -10 90 -3 14 -7 41 -9 60
-5 58 -16 153 -22 185 -2 17 -6 50 -8 75 -2 25 -6 61 -9 80 -3 19 -8 62 -11
95 -4 33 -8 74 -11 92 -15 122 -15 123 14 124 15 0 43 2 62 4 19 2 65 6 101 9
37 3 91 8 120 11 91 8 172 15 224 19 112 9 186 45 237 116 48 66 55 135 32
340 -2 19 -6 71 -9 115 -3 44 -8 96 -10 115 -3 19 -7 61 -10 93 -10 108 -71
193 -165 231 -48 19 -101 22 -195 12 -69 -7 -170 -16 -235 -21 -25 -2 -74 -7
-110 -10 -36 -3 -90 -8 -121 -10 l-56 -4 -18 42 c-21 49 -23 59 -30 112 -3 22
-7 51 -10 65 -3 14 -7 41 -9 60 -3 19 -7 49 -10 66 -3 17 -8 46 -10 65 -9 62
-16 114 -22 149 -4 19 -8 44 -9 55 -2 11 -6 34 -9 50 -3 17 -10 59 -16 95 -19
111 -21 123 -45 215 -79 303 -191 550 -341 751 -51 68 -205 247 -217 252 -4 2
-22 16 -39 30 l-31 26 72 12 c123 21 227 102 288 225 40 80 45 102 48 219 3
78 -1 107 -19 160 -41 118 -117 212 -210 258 -60 30 -77 34 -170 36 l-79 1
-25 55 c-14 30 -31 58 -36 62 -6 4 -7 8 -3 8 7 0 -12 28 -86 125 -29 38 -103
111 -147 144 -19 14 -37 29 -40 33 -13 16 -142 79 -215 104 -102 35 -272 41
-375 14z"/>
</g>
</svg>
