<?xml version="1.0" standalone="no"?>
<!DOCTYPE svg PUBLIC "-//W3C//DTD SVG 20010904//EN"
 "http://www.w3.org/TR/2001/REC-SVG-20010904/DTD/svg10.dtd">
<svg version="1.0" xmlns="http://www.w3.org/2000/svg"
 width="700.000000pt" height="700.000000pt" viewBox="0 0 700.000000 700.000000"
 preserveAspectRatio="xMidYMid meet">
<metadata>
Created by potrace 1.11, written by Peter Selinger 2001-2013
</metadata>
<g transform="translate(0.000000,700.000000) scale(0.100000,-0.100000)"
fill="#000000" stroke="none">
<path d="M2013 6971 c-50 -11 -102 -25 -116 -33 -45 -23 -152 -122 -167 -153
-21 -42 -58 -64 -223 -129 -138 -54 -290 -139 -388 -217 -20 -16 -41 -29 -46
-29 -6 0 -115 -108 -244 -240 -129 -133 -267 -266 -306 -296 -40 -31 -73 -62
-73 -70 0 -20 -33 -50 -62 -57 -35 -9 -158 -142 -207 -224 -63 -105 -72 -146
-78 -333 -4 -131 -2 -179 11 -234 l16 -68 -30 -41 c-16 -23 -30 -47 -30 -54 0
-7 -6 -13 -14 -13 -8 0 -18 -5 -22 -12 -5 -7 -2 -9 8 -5 9 3 20 1 25 -4 13
-13 72 6 102 34 14 13 44 34 66 47 22 13 148 130 280 260 303 297 484 455 725
627 104 75 360 233 376 233 3 0 39 20 82 44 551 312 1100 490 1662 538 295 25
759 15 1080 -23 199 -24 467 -107 594 -185 293 -180 467 -374 513 -573 34
-146 14 -374 -37 -426 -19 -18 -32 -20 -128 -18 -172 4 -418 64 -610 149 -165
74 -512 195 -625 218 -228 47 -546 44 -877 -10 -145 -24 -240 -48 -420 -107
-264 -87 -426 -167 -875 -432 -110 -65 -252 -148 -315 -185 -343 -199 -512
-342 -755 -639 -60 -74 -131 -160 -157 -190 -91 -109 -239 -303 -234 -308 6
-7 23 1 55 24 24 17 24 17 13 -3 -6 -12 -40 -45 -75 -73 -120 -97 -144 -163
-31 -84 36 25 67 43 70 40 3 -2 -43 -49 -101 -102 -99 -92 -123 -125 -92 -125
7 0 53 27 102 60 98 68 96 62 -20 -60 -106 -111 -175 -190 -175 -201 0 -23 35
-4 101 54 144 126 164 143 144 116 -19 -24 -267 -288 -382 -407 -54 -55 -63
-88 -15 -53 48 34 215 183 306 273 48 48 91 88 93 88 19 0 -155 -208 -289
-346 -48 -50 -88 -94 -88 -98 0 -29 141 84 304 242 43 43 74 68 68 57 -12 -24
-136 -168 -239 -279 -75 -81 -87 -106 -54 -106 29 0 108 69 205 179 49 56 92
99 94 96 6 -5 9 -2 -104 -140 -49 -60 -118 -141 -154 -180 -71 -76 -115 -134
-108 -141 21 -21 154 100 346 316 65 73 57 41 -11 -41 -84 -103 -152 -184
-210 -248 -61 -68 -74 -91 -47 -84 11 3 25 11 31 19 6 8 17 14 23 14 12 0 135
124 233 234 29 33 55 57 59 54 9 -10 -78 -135 -188 -271 -53 -65 -59 -81 -25
-68 12 4 28 6 36 3 9 -3 12 0 9 9 -3 9 40 61 109 134 63 66 109 109 102 95
-28 -58 -173 -251 -185 -246 -7 3 -12 -2 -12 -12 0 -9 -3 -25 -7 -34 -17 -41
20 -11 130 105 l117 122 -33 -63 c-19 -34 -53 -88 -76 -119 -24 -32 -43 -61
-43 -65 0 -25 37 1 96 67 80 88 101 101 80 50 -8 -19 -33 -66 -56 -105 -39
-67 -43 -70 -56 -53 -10 11 -13 13 -10 3 3 -8 9 -22 12 -32 3 -9 18 -18 32
-21 28 -5 46 2 24 10 -7 3 11 33 50 79 34 41 65 77 70 80 11 7 -4 -31 -52
-126 -49 -98 -50 -126 -3 -86 35 29 46 17 18 -20 -18 -24 -19 -53 -1 -73 8 -9
34 -54 58 -101 105 -202 197 -332 362 -513 61 -68 141 -158 177 -202 104 -125
270 -274 355 -319 60 -32 82 -39 124 -37 l50 1 44 -67 c24 -38 81 -133 126
-213 46 -80 103 -175 127 -213 24 -37 43 -73 43 -80 0 -7 -11 -28 -24 -45 -28
-39 -52 -116 -61 -197 l-6 -60 -110 -105 c-60 -58 -109 -108 -109 -112 0 -5
65 -8 144 -8 l144 0 6 87 c9 113 33 255 52 316 16 49 44 65 44 24 0 -58 36
-221 69 -317 l37 -105 1332 -3 1331 -2 85 44 c131 69 229 139 293 211 68 78
88 113 109 197 9 35 29 96 45 136 16 40 29 81 29 90 0 21 26 60 34 51 10 -10
103 -328 125 -429 35 -156 43 -138 -84 -181 -60 -21 -162 -55 -225 -78 l-115
-40 215 -1 c151 0 238 4 293 15 43 8 118 15 165 15 83 1 260 21 292 33 8 3
114 13 235 22 216 15 373 35 448 57 l37 11 0 59 c0 51 -2 58 -20 58 -11 0 -20
7 -20 15 0 14 -42 21 -100 17 -8 0 -51 10 -95 23 -44 13 -99 26 -122 29 -75
11 -363 111 -371 129 -2 4 -12 7 -22 7 -10 0 -20 4 -22 9 -1 4 -73 31 -158 60
-85 28 -163 56 -172 61 -10 6 -25 10 -34 10 -10 0 -40 11 -69 24 l-51 25 -37
123 -36 123 23 195 c20 166 23 233 21 445 -2 176 -8 280 -19 350 -10 55 -21
125 -26 155 -10 57 -27 151 -54 283 -21 106 -104 400 -182 647 -36 113 -74
234 -85 270 -11 36 -29 87 -40 114 -27 63 -21 95 28 177 68 111 182 360 187
409 1 9 5 20 8 26 32 51 102 335 144 579 17 101 33 504 24 590 -3 31 -2 89 3
128 14 113 2 463 -18 512 -82 200 -138 285 -276 422 -65 65 -119 125 -119 133
0 11 -2 12 -8 3 -6 -9 -25 1 -67 37 -33 28 -62 50 -66 50 -4 0 -36 13 -71 30
-36 16 -86 35 -114 42 -27 7 -55 18 -62 25 -7 7 -22 13 -33 13 -11 0 -30 7
-43 15 -37 24 -307 82 -489 104 -115 15 -225 21 -357 21 -104 0 -190 3 -190 8
0 4 -51 4 -112 0 -62 -4 -120 -5 -128 -3 -19 6 -273 -19 -415 -40 -55 -8 -129
-19 -165 -24 -36 -6 -81 -13 -100 -16 -31 -6 -37 -4 -53 23 -21 37 -149 145
-239 201 -36 23 -115 62 -175 86 -95 40 -119 46 -203 50 -70 3 -119 0 -187
-14z m460 -212 c118 -60 237 -145 237 -170 0 -8 -34 -21 -335 -130 -110 -40
-245 -93 -300 -119 -103 -48 -387 -201 -528 -284 -123 -73 -197 -108 -197 -94
0 19 145 150 273 246 115 86 208 146 382 247 221 129 249 160 185 205 -61 43
-58 55 22 99 101 56 148 56 261 0z m-1537 -730 c10 -17 -201 -219 -237 -226
-16 -3 -29 -10 -29 -16 0 -5 -9 -19 -20 -31 -34 -36 -123 -121 -160 -154 -19
-17 -32 -33 -29 -37 4 -3 40 22 80 56 41 34 108 87 149 118 41 30 90 69 110
87 37 33 167 114 183 114 18 0 -12 -25 -92 -80 -44 -30 -81 -61 -81 -67 0 -7
-7 -13 -15 -13 -8 0 -15 -6 -16 -12 0 -7 -29 -38 -65 -68 -77 -67 -204 -206
-204 -224 0 -8 30 16 68 51 37 36 100 93 141 127 41 33 92 78 112 99 21 20 41
37 46 37 5 0 27 13 49 29 22 16 53 33 69 37 l30 7 -35 -41 c-19 -22 -44 -44
-55 -48 -31 -11 -160 -119 -274 -229 -99 -96 -241 -255 -241 -270 0 -4 -10
-15 -22 -25 -13 -10 -20 -21 -17 -24 4 -4 71 57 150 135 196 194 458 414 483
406 26 -9 10 -30 -75 -103 -327 -282 -419 -367 -544 -503 -131 -143 -170 -179
-181 -168 -9 9 -5 188 6 247 15 83 32 129 81 212 52 89 98 139 205 224 46 37
81 70 78 75 -3 5 -1 9 5 9 5 0 26 15 46 34 20 19 60 53 88 75 29 22 84 69 122
105 74 69 80 72 91 55z m2044 -781 c-1 -43 -94 -102 -245 -154 -102 -36 -226
-96 -625 -301 -135 -69 -249 -111 -264 -96 -7 8 50 86 91 124 25 24 65 46 118
64 44 15 136 56 205 90 151 76 262 122 395 165 55 18 136 53 180 76 79 43 145
57 145 32z m800 -63 c37 -19 48 -52 23 -71 -36 -30 -119 -64 -188 -78 -123
-25 -337 -55 -444 -61 -130 -7 -264 -34 -401 -80 -97 -33 -290 -65 -394 -65
-29 0 -29 0 -10 21 29 32 90 60 184 84 47 12 131 41 188 64 173 71 245 85 397
78 146 -6 226 5 340 48 81 30 187 62 230 68 17 2 34 5 38 6 4 0 21 -6 37 -14z
m-13 -303 c-117 -66 -110 -79 10 -19 84 43 100 40 31 -5 -102 -65 -83 -82 31
-28 35 17 66 29 68 26 2 -2 -19 -19 -46 -37 -86 -55 -59 -63 42 -12 68 34 70
22 3 -23 -79 -52 -75 -74 5 -34 98 51 114 44 29 -11 -82 -53 -49 -59 49 -9 59
30 60 25 2 -22 -75 -61 -64 -74 19 -23 19 12 42 25 50 29 19 10 -35 -42 -75
-71 -23 -17 -26 -22 -12 -23 10 0 31 7 47 15 40 21 80 36 80 30 0 -3 -23 -20
-52 -37 -58 -36 -51 -50 11 -19 68 35 70 23 3 -20 -35 -22 -62 -43 -59 -45 2
-3 30 7 62 21 79 34 103 31 33 -5 -31 -16 -59 -34 -63 -40 -9 -14 -5 -13 60
15 32 14 59 24 62 22 2 -3 -32 -26 -76 -51 -79 -47 -115 -84 -68 -71 20 5 20
5 5 -7 -20 -17 -20 -71 0 -63 8 3 26 8 40 11 26 6 26 5 -4 -14 -71 -45 -47
-58 25 -14 101 62 252 114 293 100 7 -3 -15 -10 -50 -16 -79 -14 -160 -50
-231 -104 -72 -54 -51 -60 29 -9 67 44 198 92 245 90 24 -1 19 -4 -23 -14 -28
-7 -71 -20 -94 -29 -58 -24 -187 -108 -188 -123 0 -17 37 -17 43 0 11 29 287
151 303 134 3 -3 -19 -13 -48 -23 -88 -29 -176 -74 -222 -116 -80 -70 -100
-123 -75 -197 l11 -32 18 29 c40 65 55 50 29 -28 -10 -30 -18 -72 -18 -92 -1
-35 -3 -38 -38 -44 -21 -4 -55 -15 -75 -25 -21 -11 -41 -19 -46 -19 -9 0 -99
68 -179 136 -24 19 -43 44 -43 55 0 27 -18 24 -100 -18 l-72 -37 5 -56 c13
-150 230 -420 409 -511 38 -19 90 -62 155 -128 115 -117 119 -118 318 -130
215 -13 306 -58 290 -144 -10 -51 -73 -151 -114 -182 -44 -32 -94 -33 -115 -3
-21 30 -21 32 18 75 41 47 66 94 66 126 0 28 -8 33 -71 42 -59 8 -100 -15
-162 -91 -55 -68 -82 -134 -92 -224 -6 -58 -4 -68 15 -93 27 -35 62 -35 89 -1
12 15 27 24 35 21 14 -5 85 -127 105 -179 9 -25 7 -29 -27 -49 -20 -13 -54
-37 -74 -55 -73 -65 -111 -78 -233 -78 -102 -1 -115 -3 -175 -32 -75 -35 -213
-155 -289 -250 -56 -70 -145 -228 -138 -246 2 -7 12 2 21 21 57 109 150 224
263 325 118 106 171 126 332 126 l108 0 64 48 c116 88 183 112 319 112 74 0
93 -4 149 -30 89 -42 200 -155 242 -245 40 -84 35 -91 -59 -76 -263 41 -486
-19 -1004 -267 -188 -90 -224 -113 -321 -202 -71 -65 -126 -151 -152 -236 -19
-63 -20 -114 -1 -114 14 0 91 78 120 123 10 15 24 27 30 27 29 0 273 72 417
124 185 65 393 157 423 186 12 11 28 20 35 20 7 0 67 27 134 59 163 79 310
141 334 141 11 0 44 -17 74 -38 153 -106 151 -310 -4 -431 -110 -86 -170 -120
-295 -166 -114 -42 -422 -125 -464 -125 -10 0 -18 -4 -18 -10 0 -6 28 -10 65
-10 l65 0 -20 -40 c-19 -37 -28 -100 -13 -100 3 0 29 18 57 39 61 47 156 95
251 128 80 29 229 41 287 25 45 -12 127 -63 128 -78 0 -18 33 -42 70 -51 31
-8 35 -13 38 -46 3 -29 7 -37 23 -37 15 0 19 -7 19 -32 0 -20 12 -51 29 -75
28 -42 51 -132 51 -200 0 -17 -17 -64 -37 -104 -52 -105 -162 -214 -266 -263
-106 -50 -208 -83 -300 -95 -174 -24 -293 -7 -384 55 -67 46 -211 196 -228
239 -8 18 -19 35 -24 37 -5 1 -27 40 -49 84 -23 45 -48 88 -56 97 -24 24 -155
63 -326 97 -85 17 -205 44 -267 61 -62 16 -122 29 -135 29 -13 0 -59 -21 -103
-46 -97 -56 -187 -102 -223 -114 -37 -13 -23 -4 146 91 78 45 142 85 142 90 0
24 -60 4 -149 -50 -91 -55 -182 -99 -241 -116 -14 -4 25 18 85 49 115 59 225
132 233 154 2 7 -81 -30 -185 -82 -201 -102 -256 -124 -133 -52 102 59 178
108 223 147 43 36 43 51 0 22 -67 -47 -352 -197 -359 -190 -3 2 66 44 152 93
167 94 256 155 235 162 -6 2 -51 -19 -99 -46 -108 -62 -330 -172 -348 -172 -7
0 44 30 114 66 133 69 289 161 298 176 13 20 -4 14 -81 -29 -130 -74 -318
-170 -345 -177 -14 -4 20 17 75 46 168 90 267 151 309 192 58 55 30 57 -46 2
-66 -46 -185 -110 -228 -121 -14 -3 8 11 47 32 83 43 208 131 200 140 -4 3
-30 -10 -59 -29 -64 -43 -94 -58 -175 -91 -84 -34 -80 -24 4 15 69 31 151 84
213 137 56 48 16 36 -83 -26 -103 -63 -224 -123 -247 -123 -8 1 17 16 56 34
40 19 98 52 130 74 60 41 141 118 133 126 -2 3 -40 -19 -83 -49 -75 -52 -203
-123 -259 -144 -47 -18 -29 -4 36 29 35 17 115 72 178 121 131 103 135 107
127 114 -6 7 -85 -40 -182 -108 -77 -55 -179 -112 -216 -122 -14 -3 3 9 37 28
67 37 227 153 258 187 39 43 4 29 -81 -33 -93 -67 -241 -153 -250 -144 -3 2
25 21 62 42 38 20 96 57 130 81 70 50 208 178 183 171 -9 -3 -65 -41 -125 -84
-123 -90 -282 -189 -289 -181 -3 3 30 26 72 53 82 50 315 227 308 233 -5 5
-20 -4 -206 -129 -143 -95 -189 -124 -189 -115 0 2 46 34 103 72 187 124 321
234 305 249 -2 2 -36 -20 -76 -48 -260 -185 -329 -230 -372 -242 -16 -4 -11 2
16 18 42 25 123 80 210 144 28 21 88 64 133 97 45 32 80 60 77 63 -8 8 -89
-39 -208 -123 -146 -102 -267 -178 -274 -172 -2 3 15 18 38 33 77 50 382 264
413 290 22 18 25 24 13 25 -9 0 -74 -43 -144 -96 -143 -107 -177 -130 -279
-186 -94 -52 -63 -25 57 50 54 33 144 98 200 144 134 109 166 140 150 146 -13
4 -24 -4 -171 -131 -49 -43 -103 -83 -118 -90 -15 -7 -46 -24 -68 -38 -57 -37
-126 -71 -132 -65 -3 2 20 19 51 36 95 54 66 65 -36 14 -60 -30 -71 -30 -33 0
40 33 29 39 -25 15 -45 -19 -45 -19 -20 1 l25 20 -28 0 c-16 0 -26 4 -22 10 3
6 -5 14 -18 19 -31 12 -143 136 -179 199 -41 70 -141 310 -188 450 -51 154
-60 232 -34 333 10 41 17 81 16 89 -4 21 -62 70 -83 70 -10 0 -68 -35 -129
-77 -144 -101 -163 -112 -120 -74 19 17 79 60 133 96 94 63 114 89 81 102 -14
5 -103 -50 -226 -143 -27 -20 -48 -34 -48 -31 0 8 115 97 188 146 65 45 71 55
48 86 -12 17 -21 13 -144 -68 -133 -88 -213 -133 -112 -62 30 21 86 61 123 87
38 27 80 54 93 60 13 6 24 19 24 29 0 21 -27 33 -43 19 -15 -13 -189 -128
-241 -160 -22 -13 -36 -18 -32 -12 7 11 77 62 215 155 31 21 63 44 71 52 12
13 12 15 -8 15 -32 0 -87 -30 -236 -127 -71 -46 -130 -82 -132 -81 -9 10 233
180 315 222 34 18 41 36 13 36 -21 0 -217 -108 -282 -155 -78 -56 -242 -157
-247 -152 -2 3 64 51 149 107 84 56 154 105 156 110 4 10 -103 -48 -188 -101
-92 -59 -130 -81 -130 -76 0 13 347 237 367 237 2 0 35 17 71 39 37 21 79 41
93 45 27 6 45 31 30 40 -8 6 -37 -8 -166 -78 -120 -66 -208 -118 -270 -162
-33 -23 -71 -47 -85 -54 -25 -13 -25 -13 -6 8 26 30 220 155 314 203 42 22 83
46 92 54 8 7 38 24 65 36 80 35 27 35 -57 -1 -96 -41 -159 -76 -296 -167 -62
-41 -115 -73 -117 -71 -13 13 274 197 443 283 84 43 112 65 80 65 -27 -1 -254
-121 -390 -207 -21 -12 -42 -23 -47 -23 -6 0 -14 -6 -18 -13 -4 -8 -21 -22
-38 -33 -45 -29 -22 -2 37 44 54 41 452 272 469 272 5 0 9 5 9 10 0 23 -32 20
-82 -7 -29 -16 -105 -58 -168 -92 -63 -35 -123 -70 -132 -78 -9 -8 -21 -12
-26 -9 -5 3 -16 -1 -23 -10 -7 -9 -38 -33 -69 -53 -76 -52 -84 -56 -76 -43 12
19 195 146 271 187 39 21 102 58 141 81 39 23 87 49 107 57 36 15 54 34 43 45
-14 14 -395 -195 -528 -289 -95 -68 -121 -75 -33 -10 107 80 185 130 365 235
213 123 200 115 169 115 -14 1 -64 -23 -115 -55 -49 -31 -129 -77 -179 -102
-49 -25 -113 -60 -142 -78 -79 -50 -195 -115 -199 -111 -11 10 343 229 496
306 73 38 93 51 85 59 -4 5 -143 -62 -375 -179 -8 -5 -58 -33 -111 -64 -52
-30 -99 -55 -104 -55 -12 0 63 49 190 124 55 33 120 71 145 86 25 15 98 56
163 90 84 44 115 66 108 73 -15 15 -300 -129 -461 -233 -69 -44 -129 -80 -133
-80 -18 0 242 180 368 255 140 83 166 102 125 90 -23 -7 -285 -157 -340 -195
-41 -28 -54 -34 -47 -23 8 12 278 195 350 237 26 15 47 32 47 36 0 15 -107
-38 -237 -116 -68 -42 -126 -74 -128 -72 -7 6 252 181 312 211 47 24 75 47 57
47 -11 0 -158 -77 -243 -127 -78 -46 -160 -90 -151 -80 32 34 332 217 356 217
14 0 24 6 24 14 0 7 19 26 43 42 39 27 40 29 18 32 -13 2 -26 -1 -30 -6 -3 -5
-38 -25 -76 -45 -71 -35 -228 -127 -298 -175 -20 -14 -40 -22 -43 -19 -3 3
102 76 233 164 283 187 259 170 251 178 -10 10 -125 -52 -258 -140 -115 -76
-226 -140 -207 -119 5 5 30 23 57 39 70 43 261 171 290 195 l25 20 -25 -9
c-23 -8 -271 -149 -345 -196 l-30 -18 25 25 c14 15 73 55 131 90 59 35 122 72
140 83 19 11 60 34 92 51 64 35 73 42 65 49 -9 9 -160 -61 -265 -124 -105 -62
-183 -104 -183 -98 0 5 106 76 220 148 105 67 279 192 280 201 0 9 -57 -20
-120 -62 -94 -62 -351 -213 -356 -208 -4 4 224 151 407 261 45 27 79 55 79 64
0 14 -3 13 -26 -2 -14 -9 -28 -14 -31 -12 -3 3 9 13 26 22 17 8 31 17 31 19 0
3 3 12 7 22 5 13 -5 10 -38 -13 -24 -17 -80 -49 -125 -71 -44 -22 -104 -55
-133 -72 -30 -17 -58 -29 -63 -28 -9 3 123 88 136 88 3 0 59 30 123 67 97 56
137 87 228 175 120 118 132 125 256 135 101 8 149 -1 142 -27 -3 -10 -13 -26
-23 -35 -19 -17 -176 -85 -197 -85 -7 0 -13 -6 -13 -13 0 -7 -19 -51 -42 -97
-41 -85 -56 -155 -44 -204 3 -15 13 -26 22 -26 32 0 102 61 152 133 45 65 95
107 127 107 3 0 29 10 56 21 43 19 55 31 88 88 49 83 59 92 154 131 43 18 99
49 125 70 54 43 158 148 151 152 -15 10 -111 38 -129 38 -13 0 -69 -24 -125
-54 -82 -44 -118 -57 -193 -70 -51 -9 -107 -16 -125 -16 l-34 0 7 44 c15 98
140 191 277 207 40 4 94 18 120 29 36 17 80 24 178 30 157 10 197 22 298 88
97 63 133 75 213 70 53 -3 69 -9 91 -30 26 -26 26 -28 14 -85 -15 -64 -46
-133 -61 -133 -11 0 -13 -52 -4 -98 6 -28 9 -30 78 -41 118 -19 146 5 146 129
0 63 3 73 30 103 16 19 61 51 99 71 63 33 69 34 64 15 -5 -19 -4 -20 15 -10
11 6 26 17 34 23 18 18 120 67 138 67 8 0 -16 -17 -53 -37z m-2252 -218 c-11
-8 -49 -31 -85 -51 -36 -20 -115 -67 -176 -104 -110 -68 -144 -86 -144 -76 0
7 238 162 318 207 37 21 76 38 87 39 l20 0 -20 -15z m70 -34 c-9 -10 -60 -39
-113 -65 -53 -26 -155 -78 -225 -117 -71 -38 -131 -68 -134 -65 -3 3 15 18 39
32 23 15 63 40 88 55 72 46 240 141 300 171 56 28 76 23 45 -11z m-5 -48 c0
-5 -66 -43 -147 -86 -82 -42 -184 -97 -228 -121 -73 -41 -123 -59 -99 -36 21
22 447 250 467 251 4 0 7 -4 7 -8z m-70 -87 c0 -19 -376 -225 -409 -225 -9 0
11 15 44 33 33 18 118 66 189 106 108 61 156 86 174 90 1 1 2 -1 2 -4z m348
-99 c-13 -30 -182 -169 -235 -194 -72 -34 -52 38 22 81 28 16 75 51 105 76 75
65 103 82 113 72 4 -4 2 -20 -5 -35z m-446 -34 c-42 -33 -262 -143 -278 -140
-9 2 30 27 85 56 56 30 121 64 144 78 50 28 84 33 49 6z m6 -27 c-14 -14 -221
-141 -271 -167 -126 -63 -145 -56 -24 10 39 22 122 67 182 101 103 57 125 68
113 56z m-4 -75 c-17 -17 -268 -151 -339 -180 -122 -52 -46 -2 152 99 174 89
212 106 187 81z m21 -26 c-80 -62 -420 -242 -433 -230 -2 3 8 13 24 21 210
116 411 224 419 224 6 0 1 -7 -10 -15z m3055 -74 c0 -63 6 -74 65 -131 28 -27
28 -29 12 -47 -10 -11 -48 -33 -85 -50 -60 -28 -81 -31 -204 -38 l-138 -7 0
29 c0 52 20 102 60 153 61 77 187 149 263 151 26 0 27 -1 27 -60z m-3050 32
c0 -26 -439 -276 -455 -260 -3 3 13 17 37 30 24 14 84 49 133 78 92 55 278
160 283 160 1 0 2 -4 2 -8z m3160 -17 c0 -8 -4 -16 -9 -19 -5 -3 -8 5 -8 19 0
14 3 22 8 19 5 -3 9 -11 9 -19z m-3125 -25 c-14 -22 -110 -80 -279 -167 -99
-51 -181 -91 -183 -89 -6 6 137 91 242 144 55 27 127 66 159 86 64 39 70 41
61 26z m-5 -66 c-17 -19 -105 -70 -285 -165 -134 -70 -175 -75 -57 -8 65 38
345 188 351 189 2 0 -2 -7 -9 -16z m26 -43 c-13 -20 -384 -221 -409 -221 -17
0 105 74 183 112 36 17 79 41 95 54 39 29 127 75 133 70 2 -3 1 -9 -2 -15z m9
-80 c-8 -14 -157 -102 -167 -99 -7 3 157 106 170 108 2 0 1 -4 -3 -9z m3085
-22 c-46 -38 -136 -78 -319 -139 -107 -35 -198 -60 -223 -60 -26 0 -38 4 -32
9 17 17 244 105 244 95 0 -2 -34 -20 -77 -39 -81 -38 -96 -56 -22 -29 24 9
106 38 182 65 76 26 166 64 200 83 72 40 81 43 47 15z m60 -3 c0 -10 -142 -98
-181 -112 -196 -71 -370 -127 -376 -120 -2 2 86 34 194 72 136 47 221 84 273
115 72 45 90 54 90 45z m35 -16 c-3 -5 -16 -15 -28 -21 -22 -12 -22 -12 -3 10
19 21 43 30 31 11z m-3386 -84 c-18 -16 -92 -56 -96 -53 -3 3 8 13 24 23 15 9
37 23 48 30 17 10 36 11 24 0z m2781 -31 c-65 -34 -105 -46 -83 -24 11 11 123
59 138 58 6 0 -19 -15 -55 -34z m-2925 -1 c-26 -20 -75 -46 -75 -40 0 8 74 56
85 56 5 0 1 -8 -10 -16z m3355 1 c0 -18 -328 -131 -354 -122 -6 2 68 31 164
64 189 65 190 65 190 58z m25 -35 c-20 -33 -217 -107 -261 -98 -10 2 22 16 71
30 50 15 113 39 140 52 58 29 58 29 50 16z m-3375 -15 c0 -2 -10 -9 -22 -15
-22 -11 -22 -10 -4 4 21 17 26 19 26 11z m3420 -9 c-25 -24 -103 -63 -140 -70
-26 -5 -13 5 50 37 91 47 113 56 90 33z m28 -28 c-17 -28 -100 -71 -125 -66
-12 3 0 13 40 33 31 16 62 34 68 42 19 22 32 15 17 -9z m36 -39 c-22 -25 -46
-38 -87 -50 -37 -10 -31 -5 35 37 62 38 79 42 52 13z m26 -34 c0 -7 -58 -35
-72 -35 -7 1 3 9 22 20 35 19 50 24 50 15z m-11 -321 c82 -34 153 -117 166
-195 4 -21 9 -39 13 -39 3 0 43 36 89 81 45 44 88 79 94 77 16 -5 145 -233
244 -430 130 -260 175 -418 175 -609 0 -121 -6 -141 -47 -157 -40 -16 -160
-29 -217 -24 l-49 4 6 53 c4 38 21 83 57 152 l52 98 -4 100 c-3 88 -7 106 -31
147 -40 69 -101 113 -241 174 -69 30 -130 54 -134 54 -4 0 -23 15 -41 34 -36
37 -40 59 -27 167 7 55 5 73 -11 110 -39 87 -106 140 -236 189 -34 13 -55 26
-51 32 9 14 147 1 193 -18z m-3333 -746 c12 -10 34 -49 50 -86 15 -37 61 -118
102 -182 80 -125 111 -181 143 -262 38 -97 151 -312 219 -418 75 -117 150
-257 150 -280 0 -8 -16 -26 -36 -40 -31 -21 -51 -25 -133 -28 -158 -6 -175 3
-382 216 -192 198 -270 289 -376 436 -192 269 -255 448 -185 527 21 24 42 33
97 45 39 8 104 31 145 51 114 54 164 60 206 21z m414 -42 c0 -5 -144 -107
-170 -121 -33 -17 8 15 85 69 84 58 85 59 85 52z m3215 -505 l60 -6 -50 -18
c-27 -10 -70 -27 -93 -38 -67 -30 -123 -34 -166 -14 -37 18 -37 18 -64 -8 -33
-32 -72 -47 -119 -47 -26 0 -42 -8 -64 -31 -29 -31 -52 -35 -99 -16 -10 4 -22
-5 -35 -25 -40 -63 -107 -89 -170 -65 -17 6 -23 1 -32 -22 -12 -32 -57 -51
-121 -51 -22 0 -35 -6 -39 -17 -14 -39 -35 -53 -84 -53 -94 0 -107 30 -31 73
67 39 279 142 397 192 255 108 296 119 540 148 47 6 105 5 170 -2z m259 -548
c-15 -91 -98 -223 -138 -223 -12 0 -38 10 -59 23 l-37 23 70 57 c38 31 86 79
107 106 47 62 67 66 57 14z m-2559 -547 c-11 -7 -31 -16 -45 -20 -19 -5 -16
-2 10 13 40 23 65 28 35 7z m535 -122 c0 -9 -131 -67 -137 -60 -3 3 23 19 58
35 66 31 79 35 79 25z"/>
<path d="M3824 4556 c-62 -29 -77 -46 -37 -45 44 1 128 34 128 50 0 22 -36 20
-91 -5z"/>
<path d="M3835 4510 c-27 -10 -60 -19 -71 -19 -19 -1 -41 -37 -29 -49 7 -8
168 63 173 76 5 16 -13 14 -73 -8z"/>
<path d="M3792 4447 c-82 -31 -126 -67 -83 -67 10 0 41 9 67 20 26 11 49 19
51 17 2 -3 -34 -20 -79 -40 -50 -21 -84 -42 -86 -52 -3 -13 1 -16 20 -11 13 4
7 -2 -14 -14 -40 -22 -50 -40 -20 -39 35 1 187 74 190 92 3 16 -1 16 -50 -4
-85 -34 -88 -32 -9 6 87 41 84 39 86 65 1 10 10 28 20 40 25 28 8 25 -93 -13z"/>
<path d="M3760 4288 c-175 -80 -181 -84 -164 -101 7 -6 20 -2 109 38 82 36 58
17 -42 -35 -45 -23 -84 -49 -87 -57 -7 -18 10 -13 107 32 75 34 102 55 95 77
-3 7 6 21 19 31 22 18 31 38 16 36 -5 0 -28 -10 -53 -21z"/>
<path d="M3665 4138 c-69 -35 -95 -55 -95 -75 0 -9 17 -4 53 17 30 16 58 30
63 30 5 0 -15 -14 -45 -30 -30 -17 -63 -38 -73 -47 -44 -40 -3 -45 70 -8 28
14 57 25 65 25 9 0 16 12 19 30 3 22 0 30 -10 30 -9 0 -5 8 12 21 28 22 34 39
14 39 -7 -1 -40 -15 -73 -32z"/>
<path d="M2348 3953 c-32 -8 -58 -19 -58 -24 0 -5 56 -9 125 -9 72 0 125 4
125 9 0 6 -10 17 -22 25 -28 20 -94 19 -170 -1z"/>
<path d="M2420 3884 c-69 -7 -134 -13 -144 -13 -12 -1 -16 -4 -10 -10 10 -9
374 -34 382 -26 13 13 -62 67 -90 64 -7 -1 -69 -7 -138 -15z"/>
<path d="M2580 3803 c-98 -9 -260 -36 -260 -43 0 -18 65 -20 231 -10 96 7 176
14 179 17 3 2 -6 13 -19 24 -23 18 -45 21 -131 12z"/>
<path d="M2709 3741 c-14 -5 -72 -14 -130 -20 -57 -7 -123 -14 -146 -17 -87
-10 -41 -24 80 -24 150 0 287 10 287 21 0 12 -42 49 -54 48 -6 0 -23 -4 -37
-8z"/>
<path d="M2783 3669 c-23 -4 -124 -17 -223 -28 -100 -11 -185 -23 -191 -26
-22 -14 -6 -23 34 -18 40 4 38 2 -50 -46 -202 -109 -313 -214 -313 -297 0 -17
-7 -51 -15 -74 -8 -23 -15 -59 -15 -79 0 -45 24 -128 33 -114 7 10 67 36 67
28 0 -2 -19 -14 -42 -28 -48 -28 -95 -74 -85 -83 3 -4 43 14 88 40 57 32 88
44 104 40 13 -3 33 -1 44 6 12 6 21 9 21 6 0 -3 -42 -30 -92 -62 -51 -31 -103
-64 -115 -72 -13 -8 -23 -12 -23 -9 0 3 34 27 75 53 41 26 75 53 75 61 0 15
-16 17 -25 3 -3 -5 -34 -23 -68 -40 -34 -18 -70 -39 -79 -48 -24 -20 -24 -46
0 -38 16 6 16 5 -1 -8 -14 -11 -16 -22 -11 -60 7 -50 16 -55 54 -30 23 15 23
14 -2 -10 -26 -25 -37 -56 -21 -56 7 0 101 63 303 204 41 28 76 59 78 69 5 26
-8 21 -79 -26 -90 -60 -97 -64 -82 -46 6 8 41 32 77 54 48 30 65 46 66 62 0
16 8 24 28 29 94 21 244 92 311 148 33 28 52 36 81 36 22 0 41 -4 45 -9 11
-19 -19 -60 -88 -117 -120 -101 -132 -112 -125 -119 18 -18 350 131 411 185
44 38 59 75 55 136 -3 45 -5 49 -38 60 -19 7 -52 16 -73 19 -32 5 -43 14 -67
53 -16 26 -40 58 -54 72 l-25 25 25 23 c14 12 32 22 40 22 8 0 14 6 14 13 0
10 -36 18 -137 28 l-138 14 113 3 c61 1 112 7 112 11 0 5 -8 18 -17 28 -15 17
-25 19 -60 12z m-120 -242 c-5 -61 -2 -81 17 -124 12 -28 20 -60 18 -70 -1
-10 -32 -37 -68 -61 -36 -24 -64 -47 -62 -52 1 -6 -7 -10 -17 -10 -11 0 -61
-14 -113 -31 -116 -38 -293 -53 -304 -26 -13 35 82 235 141 297 64 67 255 149
347 150 l46 0 -5 -73z m117 -18 c0 -5 -4 -9 -10 -9 -5 0 -10 7 -10 16 0 8 5
12 10 9 6 -3 10 -10 10 -16z m-460 -413 c-23 -22 -310 -216 -310 -209 0 8 20
23 105 80 39 25 102 68 140 94 72 50 90 59 65 35z m-110 -130 c0 -3 -15 -14
-32 -26 l-33 -22 30 26 c31 27 35 29 35 22z"/>
<path d="M3604 3010 c-135 -28 -256 -142 -312 -293 -30 -78 -28 -140 4 -205
31 -62 71 -98 125 -112 45 -12 65 -4 35 14 -72 43 -115 109 -116 176 0 19 13
62 29 96 48 103 156 166 311 184 131 15 136 19 100 77 -35 58 -95 80 -176 63z"/>
<path d="M1651 2914 c0 -11 3 -14 6 -6 3 7 2 16 -1 19 -3 4 -6 -2 -5 -13z"/>
<path d="M2325 2883 c-27 -21 -106 -76 -175 -123 -129 -88 -144 -107 -116
-145 19 -26 28 -21 211 109 142 102 175 129 175 148 0 13 -28 9 -47 -7 -36
-30 -141 -107 -223 -163 -206 -141 -115 -66 163 136 82 59 103 82 75 82 -7 0
-35 -17 -63 -37z"/>
<path d="M2261 2726 c-7 -8 -53 -42 -104 -76 -51 -34 -93 -66 -95 -71 -5 -12
45 -11 71 2 20 9 20 9 -2 -9 -17 -13 -20 -21 -12 -27 18 -10 56 2 88 29 15 13
38 26 51 30 15 5 22 15 22 32 0 28 -7 30 -39 8 -22 -16 -22 -16 -9 5 7 11 23
21 35 21 20 0 23 5 23 35 0 37 -10 44 -29 21z"/>
<path d="M3765 2710 c-103 -19 -225 -89 -252 -144 -20 -43 -13 -62 30 -82 31
-15 41 -15 138 5 64 13 131 35 174 56 l70 35 -108 -3 c-77 -3 -105 -1 -97 7 6
6 65 13 131 16 119 5 138 12 139 46 0 23 -48 54 -99 64 -59 11 -67 11 -126 0z"/>
<path d="M2208 2562 c-16 -10 -28 -20 -28 -24 0 -16 47 -7 63 10 32 35 12 43
-35 14z"/>
<path d="M3209 2513 c-35 -94 -49 -153 -64 -278 -18 -155 -37 -266 -66 -368
-10 -38 -21 -96 -25 -129 -9 -82 9 -75 59 23 66 131 78 174 87 314 17 256 30
410 36 438 3 16 1 27 -5 27 -7 0 -16 -12 -22 -27z"/>
<path d="M4535 2110 c-101 -26 -321 -105 -412 -146 -80 -37 -223 -136 -223
-155 0 -13 -16 -20 200 81 287 134 498 210 588 210 22 0 32 5 32 15 0 21 -96
19 -185 -5z"/>
<path d="M2748 1925 c-3 -23 0 -35 8 -35 19 0 27 18 20 46 -9 35 -23 30 -28
-11z"/>
<path d="M2749 1863 c-11 -12 -11 -17 -2 -20 10 -3 10 -9 1 -23 -17 -27 -3
-36 27 -16 29 19 33 36 8 36 -13 0 -14 3 -5 12 7 7 12 16 12 20 0 14 -27 9
-41 -9z"/>
<path d="M2777 1792 c-21 -22 -21 -32 -4 -32 14 0 47 31 47 43 0 14 -27 7 -43
-11z"/>
<path d="M5070 1785 c0 -8 -7 -15 -15 -15 -9 0 -26 -10 -38 -22 -15 -15 -32
-22 -50 -20 -18 2 -27 -1 -27 -11 0 -10 -9 -12 -32 -9 -27 4 -30 2 -26 -16 6
-22 -13 -31 -62 -32 -14 0 -34 -7 -44 -15 -12 -9 -42 -15 -73 -15 -50 0 -53
-1 -43 -19 14 -28 13 -31 -15 -31 -14 0 -33 -8 -44 -19 -13 -13 -23 -16 -35
-9 -23 13 -30 4 -16 -21 12 -24 4 -26 -34 -11 -20 7 -26 6 -26 -4 0 -11 -23
-16 -85 -21 -47 -4 -88 -11 -91 -16 -3 -5 -27 -9 -55 -9 -36 0 -49 -4 -49 -14
0 -20 19 -31 32 -18 7 7 19 7 36 1 13 -5 39 -9 56 -9 17 1 43 -2 57 -5 23 -6
28 -2 40 23 13 29 14 30 41 16 25 -13 28 -12 38 6 9 17 14 18 36 8 23 -11 29
-10 44 9 11 15 24 20 38 16 14 -3 32 5 56 28 24 21 49 34 74 36 20 2 42 10 48
18 6 8 27 15 48 15 20 0 36 5 36 11 0 6 9 9 20 6 17 -4 20 0 20 25 0 31 -1 31
48 11 8 -3 12 4 12 23 l0 28 28 -27 c37 -35 42 -34 42 8 0 38 15 45 36 18 12
-16 13 -10 14 40 0 50 -2 57 -20 57 -11 0 -20 -7 -20 -15z"/>
<path d="M2805 1754 c-33 -17 -115 -93 -115 -107 0 -15 27 0 85 45 72 57 89
92 30 62z"/>
<path d="M993 2318 c-24 -5 -43 -15 -43 -22 0 -13 86 -56 112 -56 28 0 116
-49 163 -92 83 -75 132 -101 190 -101 47 0 116 24 114 41 0 8 -106 80 -227
155 -82 50 -184 88 -236 86 -17 -1 -50 -5 -73 -11z"/>
<path d="M1350 2002 c0 -5 12 -45 26 -88 33 -102 155 -307 199 -334 35 -22 95
-37 95 -25 0 5 -33 49 -73 99 -103 127 -188 253 -208 305 -15 41 -39 67 -39
43z"/>
<path d="M25 2810 c3 -5 8 -10 11 -10 2 0 4 5 4 10 0 6 -5 10 -11 10 -5 0 -7
-4 -4 -10z"/>
<path d="M66 2782 c-3 -6 -1 -14 5 -17 14 -9 20 -2 10 14 -6 8 -11 9 -15 3z"/>
<path d="M117 2726 c10 -13 20 -20 21 -15 5 12 -17 39 -30 39 -5 0 -1 -11 9
-24z"/>
</g>
</svg>
